<svg width="24" height="24" viewBox="0 0 24 24" fill="none" xmlns="http://www.w3.org/2000/svg">
<path fill-rule="evenodd" clip-rule="evenodd" d="M17.196 5L20.66 11C21.017 11.619 21.017 12.381 20.66 13L17.196 19C16.839 19.619 16.178 20 15.464 20H8.53602C7.82102 20 7.16102 19.619 6.80402 19L3.34002 13C2.98302 12.381 2.98302 11.619 3.34002 11L6.80402 5C7.16102 4.381 7.82202 4 8.53602 4H15.465C16.179 4 16.839 4.381 17.196 5Z" stroke="black" stroke-width="1.5" stroke-linecap="round" stroke-linejoin="round"/>
<path fill-rule="evenodd" clip-rule="evenodd" d="M14.7994 9.20056C16.3455 10.7467 16.3455 13.2534 14.7994 14.7994C13.2533 16.3455 10.7466 16.3455 9.20055 14.7994C7.65446 13.2533 7.65446 10.7466 9.20055 9.20056C10.7466 7.65447 13.2533 7.65447 14.7994 9.20056Z" stroke="black" stroke-width="1.5" stroke-linecap="round" stroke-linejoin="round"/>
</svg>
